
<svg xmlns="http://www.w3.org/2000/svg" xmlns:xlink="http://www.w3.org/1999/xlink" width="500" zoomAndPan="magnify" viewBox="0 0 375 374.999991" height="500" preserveAspectRatio="xMidYMid meet" version="1.0"><path fill="#8c7c69" d="M 123.101562 241.886719 C 118.886719 241.984375 114.859375 241.167969 111.015625 239.441406 C 121.132812 252.664062 138.695312 268.1875 152.722656 268.1875 C 152.875 268.1875 153.023438 268.1875 153.171875 268.1875 C 162.699219 267.957031 174.503906 264.179688 187.441406 257.230469 C 175.703125 250.292969 164.792969 242.246094 154.699219 233.089844 C 142.667969 238.9375 131.890625 241.882812 123.101562 241.882812 Z M 196.402344 247.003906 C 196.15625 247.003906 195.925781 246.945312 195.710938 246.824219 C 184.78125 240.5625 174.621094 233.238281 165.234375 224.851562 C 165.089844 224.726562 164.972656 224.582031 164.886719 224.414062 C 164.800781 224.246094 164.75 224.066406 164.738281 223.875 C 164.722656 223.6875 164.746094 223.503906 164.808594 223.324219 C 164.871094 223.144531 164.964844 222.980469 165.089844 222.839844 C 165.214844 222.699219 165.363281 222.585938 165.535156 222.503906 C 165.707031 222.421875 165.886719 222.375 166.078125 222.367188 C 166.265625 222.355469 166.449219 222.382812 166.628906 222.449219 C 166.808594 222.511719 166.96875 222.609375 167.109375 222.738281 C 176.347656 230.992188 186.34375 238.203125 197.101562 244.367188 C 197.378906 244.523438 197.582031 244.75 197.707031 245.046875 C 197.832031 245.339844 197.855469 245.644531 197.773438 245.953125 C 197.691406 246.265625 197.523438 246.515625 197.269531 246.710938 C 197.011719 246.910156 196.726562 247.007812 196.402344 247.003906 Z M 203.929688 148.816406 C 203.566406 148.816406 203.253906 148.699219 202.984375 148.457031 C 194.28125 140.664062 185.015625 133.597656 175.191406 127.269531 C 175.03125 127.167969 174.898438 127.039062 174.792969 126.886719 C 174.6875 126.730469 174.613281 126.5625 174.570312 126.378906 C 174.53125 126.195312 174.527344 126.011719 174.5625 125.828125 C 174.59375 125.644531 174.664062 125.472656 174.765625 125.316406 C 174.867188 125.15625 174.992188 125.027344 175.148438 124.917969 C 175.300781 124.8125 175.472656 124.738281 175.65625 124.699219 C 175.839844 124.660156 176.023438 124.65625 176.207031 124.6875 C 176.390625 124.722656 176.5625 124.789062 176.722656 124.890625 C 186.675781 131.300781 196.058594 138.457031 204.875 146.351562 C 205.097656 146.546875 205.242188 146.785156 205.308594 147.070312 C 205.378906 147.355469 205.363281 147.632812 205.257812 147.90625 C 205.152344 148.179688 204.980469 148.402344 204.738281 148.566406 C 204.496094 148.734375 204.230469 148.816406 203.933594 148.816406 Z M 239.929688 251.464844 C 239.804688 251.464844 239.679688 251.449219 239.558594 251.414062 C 236.570312 250.605469 233.46875 249.609375 230.335938 248.449219 C 230.160156 248.382812 230.003906 248.289062 229.867188 248.160156 C 229.730469 248.035156 229.621094 247.882812 229.542969 247.714844 C 229.464844 247.542969 229.421875 247.367188 229.414062 247.179688 C 229.40625 246.992188 229.4375 246.8125 229.5 246.636719 C 229.566406 246.460938 229.664062 246.304688 229.789062 246.167969 C 229.917969 246.027344 230.066406 245.921875 230.238281 245.84375 C 230.40625 245.765625 230.585938 245.722656 230.773438 245.714844 C 230.960938 245.707031 231.144531 245.738281 231.320312 245.800781 C 234.371094 246.929688 237.390625 247.902344 240.300781 248.691406 C 240.644531 248.785156 240.914062 248.976562 241.109375 249.273438 C 241.304688 249.566406 241.378906 249.890625 241.332031 250.238281 C 241.285156 250.589844 241.128906 250.882812 240.863281 251.117188 C 240.597656 251.347656 240.285156 251.464844 239.929688 251.464844 Z M 219.554688 243.734375 C 219.886719 243.734375 220.179688 243.632812 220.4375 243.425781 C 220.695312 243.222656 220.863281 242.957031 220.9375 242.636719 C 221.007812 242.316406 220.972656 242.007812 220.832031 241.710938 C 220.6875 241.414062 220.464844 241.195312 220.167969 241.050781 C 205.949219 234.046875 192.84375 225.367188 180.855469 215.007812 C 180.789062 214.9375 180.714844 214.875 180.636719 214.820312 C 176.238281 211.070312 171.933594 207.09375 167.71875 202.894531 C 163.78125 198.964844 159.984375 194.890625 156.417969 190.769531 C 158.484375 188.023438 160.652344 185.28125 162.925781 182.550781 C 166.753906 186.996094 170.820312 191.375 175.039062 195.585938 C 178.066406 198.605469 181.125 201.496094 184.214844 204.253906 C 186.921875 206.675781 189.6875 209.03125 192.507812 211.316406 C 216.359375 230.621094 240.597656 241.777344 257.742188 241.777344 C 261.886719 241.875 265.859375 241.085938 269.652344 239.410156 C 259.550781 252.640625 241.945312 268.199219 227.910156 268.199219 C 227.753906 268.199219 227.601562 268.199219 227.460938 268.199219 C 208.363281 267.742188 181.074219 253.179688 155.953125 230.429688 C 155.910156 230.386719 155.867188 230.34375 155.816406 230.304688 C 153.132812 227.867188 150.472656 225.339844 147.84375 222.722656 C 145.464844 220.347656 143.113281 217.898438 140.84375 215.429688 C 144.871094 207.625 149.488281 200.179688 154.695312 193.101562 C 158.1875 197.109375 161.882812 201.070312 165.71875 204.890625 C 182.347656 221.480469 200.753906 234.863281 218.949219 243.601562 C 219.140625 243.695312 219.347656 243.742188 219.5625 243.742188 Z M 123.371094 141.34375 C 123.074219 141.347656 122.808594 141.261719 122.5625 141.09375 C 122.320312 140.925781 122.148438 140.707031 122.042969 140.429688 C 120.882812 137.308594 119.882812 134.214844 119.070312 131.230469 C 119.023438 131.050781 119.007812 130.867188 119.03125 130.683594 C 119.054688 130.496094 119.113281 130.320312 119.207031 130.160156 C 119.300781 129.996094 119.421875 129.859375 119.570312 129.742188 C 119.71875 129.628906 119.882812 129.546875 120.066406 129.496094 C 120.246094 129.449219 120.429688 129.4375 120.617188 129.460938 C 120.800781 129.484375 120.976562 129.542969 121.140625 129.636719 C 121.304688 129.726562 121.441406 129.847656 121.554688 129.996094 C 121.671875 130.144531 121.753906 130.308594 121.800781 130.492188 C 122.59375 133.394531 123.566406 136.40625 124.695312 139.449219 C 124.777344 139.664062 124.804688 139.886719 124.773438 140.117188 C 124.746094 140.347656 124.664062 140.554688 124.535156 140.746094 C 124.402344 140.9375 124.230469 141.085938 124.027344 141.191406 C 123.820312 141.296875 123.601562 141.351562 123.371094 141.351562 Z M 267.730469 216.128906 L 267.832031 216.128906 C 268.019531 216.117188 268.195312 216.066406 268.363281 215.984375 C 268.53125 215.902344 268.675781 215.789062 268.800781 215.648438 C 268.921875 215.507812 269.015625 215.347656 269.074219 215.167969 C 269.132812 214.992188 269.15625 214.808594 269.144531 214.621094 C 268.8125 210.964844 268.015625 207.40625 266.757812 203.953125 C 266.691406 203.78125 266.59375 203.632812 266.46875 203.5 C 266.34375 203.367188 266.199219 203.265625 266.03125 203.1875 C 265.867188 203.113281 265.695312 203.070312 265.511719 203.058594 C 265.328125 203.050781 265.152344 203.074219 264.980469 203.132812 C 264.808594 203.195312 264.652344 203.28125 264.515625 203.402344 C 264.375 203.519531 264.265625 203.660156 264.183594 203.820312 C 264.097656 203.984375 264.046875 204.152344 264.03125 204.335938 C 264.011719 204.515625 264.03125 204.695312 264.082031 204.867188 C 265.261719 208.085938 266.007812 211.402344 266.320312 214.816406 C 266.332031 214.996094 266.378906 215.164062 266.457031 215.324219 C 266.53125 215.488281 266.636719 215.628906 266.765625 215.75 C 266.898438 215.871094 267.046875 215.964844 267.214844 216.03125 C 267.378906 216.097656 267.550781 216.128906 267.730469 216.128906 Z M 232.980469 157.300781 C 229.945312 153.921875 226.742188 150.554688 223.460938 147.28125 C 207.957031 131.8125 191.359375 119.128906 176.722656 111.558594 C 176.5625 111.472656 176.421875 111.355469 176.304688 111.214844 C 176.1875 111.070312 176.101562 110.910156 176.046875 110.734375 C 175.992188 110.558594 175.976562 110.375 175.992188 110.191406 C 176.007812 110.007812 176.058594 109.835938 176.144531 109.671875 C 176.230469 109.507812 176.34375 109.367188 176.484375 109.246094 C 176.625 109.125 176.785156 109.039062 176.960938 108.980469 C 177.136719 108.921875 177.316406 108.902344 177.5 108.914062 C 177.6875 108.925781 177.859375 108.972656 178.027344 109.054688 C 192.910156 116.753906 209.757812 129.621094 225.460938 145.285156 C 228.578125 148.394531 231.621094 151.585938 234.527344 154.792969 C 236.453125 151.601562 238.214844 148.4375 239.804688 145.292969 C 237.507812 142.800781 235.15625 140.34375 232.785156 137.980469 C 219.996094 125.019531 205.726562 113.953125 189.980469 104.789062 C 189.726562 104.730469 189.503906 104.605469 189.320312 104.421875 C 177.132812 97.621094 154.398438 87.53125 140.648438 95.050781 L 140.285156 95.242188 C 139.019531 95.96875 137.867188 96.847656 136.832031 97.875 C 132.09375 102.609375 130.472656 110.132812 131.90625 119.667969 C 153.246094 123.621094 181.363281 140.941406 205.589844 165.109375 C 209.808594 169.320312 213.882812 173.707031 217.722656 178.164062 C 223.273438 171.550781 228.359375 164.59375 232.980469 157.300781 Z M 166.191406 106.835938 C 166.035156 106.835938 165.878906 106.808594 165.730469 106.757812 C 162.503906 105.582031 159.179688 104.839844 155.757812 104.523438 C 155.566406 104.515625 155.386719 104.46875 155.214844 104.386719 C 155.042969 104.304688 154.894531 104.195312 154.765625 104.050781 C 154.640625 103.910156 154.546875 103.75 154.484375 103.570312 C 154.421875 103.390625 154.398438 103.207031 154.414062 103.015625 C 154.425781 102.828125 154.476562 102.648438 154.5625 102.476562 C 154.648438 102.308594 154.761719 102.160156 154.910156 102.039062 C 155.054688 101.914062 155.21875 101.824219 155.398438 101.769531 C 155.582031 101.710938 155.765625 101.691406 155.957031 101.710938 C 159.625 102.039062 163.191406 102.832031 166.65625 104.089844 C 166.984375 104.199219 167.238281 104.402344 167.417969 104.699219 C 167.597656 105 167.65625 105.316406 167.601562 105.660156 C 167.542969 106 167.382812 106.285156 167.117188 106.507812 C 166.847656 106.730469 166.542969 106.839844 166.195312 106.839844 Z M 248.183594 238.148438 C 246.652344 231.191406 244.304688 224.515625 241.140625 218.121094 C 239.085938 220.339844 236.96875 222.535156 234.792969 224.710938 C 232.617188 226.875 230.386719 229.019531 228.128906 231.097656 C 234.527344 234.257812 241.207031 236.609375 248.175781 238.148438 Z M 243.203125 215.875 C 246.882812 223.121094 249.535156 230.71875 251.164062 238.675781 C 260.507812 240.050781 268.136719 238.542969 272.996094 233.691406 C 274.113281 232.574219 275.046875 231.320312 275.800781 229.933594 C 276.128906 229.328125 276.425781 228.707031 276.6875 228.070312 C 280.789062 218.046875 277.550781 202.015625 267.402344 183.214844 C 260.449219 194.921875 252.378906 205.808594 243.195312 215.875 Z M 215.882812 180.34375 C 212.007812 175.820312 207.878906 171.367188 203.597656 167.097656 C 199.269531 162.785156 194.824219 158.691406 190.3125 154.859375 C 185.800781 158.707031 181.339844 162.820312 177.050781 167.097656 C 172.722656 171.414062 168.621094 175.851562 164.777344 180.351562 C 168.644531 184.863281 172.765625 189.308594 177.050781 193.582031 C 181.414062 197.9375 185.859375 202.027344 190.320312 205.832031 C 194.851562 201.976562 199.3125 197.859375 203.597656 193.582031 C 207.933594 189.257812 212.039062 184.828125 215.882812 180.34375 Z M 188.117188 153.011719 C 183.667969 156.816406 179.277344 160.878906 175.050781 165.097656 C 170.4375 169.699219 166.074219 174.441406 162.003906 179.25 C 161.882812 179.355469 161.78125 179.480469 161.699219 179.621094 C 144.566406 199.957031 132.699219 221.460938 129.503906 238.589844 C 119.953125 240.019531 112.402344 238.402344 107.660156 233.675781 C 106.601562 232.609375 105.699219 231.425781 104.960938 230.117188 L 104.832031 229.871094 C 90.769531 204.304688 131.40625 154.378906 147.867188 137.960938 C 150.210938 135.621094 152.667969 133.277344 155.179688 130.976562 C 158.304688 132.558594 161.476562 134.316406 164.691406 136.253906 C 161.484375 139.144531 158.289062 142.171875 155.1875 145.265625 C 139.488281 160.929688 126.585938 177.730469 118.871094 192.578125 C 118.816406 192.6875 118.773438 192.800781 118.746094 192.917969 C 118.71875 193.035156 118.707031 193.15625 118.710938 193.277344 C 118.714844 193.398438 118.734375 193.515625 118.769531 193.632812 C 118.804688 193.75 118.851562 193.859375 118.914062 193.960938 C 118.980469 194.066406 119.054688 194.160156 119.140625 194.242188 C 119.226562 194.328125 119.324219 194.398438 119.429688 194.460938 C 119.535156 194.519531 119.648438 194.5625 119.765625 194.59375 C 119.882812 194.625 120 194.640625 120.121094 194.640625 C 120.386719 194.640625 120.632812 194.574219 120.859375 194.4375 C 121.085938 194.300781 121.257812 194.113281 121.378906 193.878906 C 128.96875 179.28125 141.6875 162.726562 157.1875 147.257812 C 160.4375 144.019531 163.785156 140.84375 167.140625 137.84375 L 167.199219 137.789062 C 174.507812 142.402344 181.488281 147.472656 188.132812 153 Z M 152.449219 129.648438 C 150.1875 131.734375 147.976562 133.855469 145.855469 135.96875 C 143.671875 138.144531 141.558594 140.34375 139.507812 142.554688 C 136.363281 136.195312 134.015625 129.554688 132.464844 122.628906 C 139.414062 124.164062 146.078125 126.503906 152.457031 129.648438 Z M 190.347656 258.863281 C 176.417969 266.554688 163.605469 270.75 153.253906 270.996094 C 153.082031 270.996094 152.910156 270.996094 152.738281 270.996094 C 134.300781 270.996094 110.144531 246.613281 102.300781 231.140625 C 96.363281 219.886719 100.230469 201.148438 111.648438 180.417969 C 103.90625 166.496094 99.6875 153.683594 99.4375 143.339844 C 98.992188 124.789062 123.835938 100.359375 139.394531 92.511719 C 150.679688 86.589844 169.460938 90.445312 190.242188 101.835938 C 203.355469 94.585938 226.535156 84.695312 241.28125 92.511719 C 255.085938 99.476562 281.695312 123.730469 281.230469 143.339844 C 280.976562 153.847656 276.613281 166.710938 269.0625 180.308594 C 280.960938 201.738281 284.234375 220.125 278.371094 231.140625 C 270.523438 246.613281 246.367188 270.996094 227.929688 270.996094 C 227.757812 270.996094 227.585938 270.996094 227.414062 270.996094 C 216.878906 270.746094 203.984375 266.394531 190.355469 258.863281 Z M 113.285156 177.53125 C 120.207031 165.789062 128.265625 154.882812 137.453125 144.804688 C 128.511719 126.507812 126.335938 111.128906 131.074219 101.226562 C 117.679688 111.425781 101.929688 129.214844 102.269531 143.277344 C 102.496094 152.796875 106.300781 164.601562 113.285156 177.53125 Z M 139.515625 218.121094 C 141.582031 220.347656 143.707031 222.550781 145.855469 224.6875 C 148.035156 226.859375 150.238281 228.972656 152.460938 231.023438 C 146.082031 234.160156 139.425781 236.503906 132.484375 238.050781 C 134.023438 231.121094 136.367188 224.476562 139.515625 218.113281 Z M 192.519531 207.671875 C 195.257812 209.945312 198 212.113281 200.742188 214.171875 C 204.898438 210.597656 208.992188 206.804688 212.929688 202.871094 C 229.335938 186.507812 242.566406 168.414062 251.1875 150.546875 C 251.269531 150.378906 251.378906 150.230469 251.519531 150.105469 C 251.65625 149.984375 251.816406 149.890625 251.992188 149.828125 C 252.171875 149.765625 252.351562 149.738281 252.539062 149.75 C 252.726562 149.757812 252.90625 149.804688 253.074219 149.886719 C 253.242188 149.96875 253.390625 150.078125 253.515625 150.21875 C 253.640625 150.355469 253.734375 150.515625 253.796875 150.691406 C 253.859375 150.867188 253.882812 151.050781 253.875 151.234375 C 253.863281 151.421875 253.816406 151.601562 253.738281 151.769531 C 244.976562 169.917969 231.558594 188.277344 214.929688 204.863281 C 211.105469 208.683594 207.113281 212.390625 203.074219 215.886719 C 210.15625 221.097656 217.605469 225.710938 225.425781 229.738281 C 227.921875 227.457031 230.398438 225.089844 232.800781 222.695312 C 245.839844 209.878906 256.957031 195.578125 266.140625 179.78125 C 266.183594 179.679688 266.242188 179.582031 266.308594 179.492188 C 273.808594 166.125 278.144531 153.519531 278.386719 143.273438 C 278.726562 129.222656 262.988281 111.433594 249.59375 101.230469 C 253.726562 109.828125 252.632812 122.550781 246.300781 137.941406 C 238.636719 156.570312 224.183594 177.03125 205.601562 195.5625 C 201.375 199.78125 196.980469 203.84375 192.515625 207.664062 Z M 193.128906 103.476562 C 204.902344 110.382812 215.839844 118.417969 225.941406 127.582031 C 233.179688 123.921875 240.773438 121.277344 248.722656 119.652344 C 250.171875 110.074219 248.53125 102.578125 243.800781 97.859375 C 234.921875 89.003906 216.085938 91.140625 193.128906 103.476562 Z M 228.1875 129.632812 C 234.570312 126.496094 241.234375 124.164062 248.183594 122.632812 C 247.121094 127.519531 245.617188 132.265625 243.675781 136.875 C 242.90625 138.75 242.0625 140.644531 241.148438 142.5625 C 239.070312 140.316406 236.9375 138.105469 234.796875 135.96875 C 232.609375 133.789062 230.40625 131.679688 228.1875 129.632812 Z M 233.882812 205.835938 C 234.308594 205.835938 234.660156 205.675781 234.941406 205.359375 C 243.347656 195.992188 250.691406 185.855469 256.96875 174.953125 C 257.058594 174.792969 257.117188 174.617188 257.140625 174.433594 C 257.160156 174.246094 257.148438 174.0625 257.097656 173.882812 C 257.046875 173.703125 256.964844 173.539062 256.847656 173.394531 C 256.730469 173.246094 256.59375 173.128906 256.429688 173.035156 C 256.265625 172.945312 256.089844 172.886719 255.90625 172.863281 C 255.71875 172.839844 255.535156 172.855469 255.355469 172.90625 C 255.175781 172.957031 255.011719 173.039062 254.863281 173.152344 C 254.714844 173.265625 254.597656 173.40625 254.503906 173.566406 C 248.324219 184.296875 241.097656 194.273438 232.820312 203.488281 C 232.636719 203.695312 232.523438 203.9375 232.480469 204.210938 C 232.441406 204.488281 232.476562 204.75 232.589844 205.003906 C 232.707031 205.257812 232.878906 205.457031 233.113281 205.609375 C 233.347656 205.761719 233.605469 205.835938 233.882812 205.835938 Z M 135.917969 196.074219 C 136.433594 196.078125 136.832031 195.859375 137.109375 195.425781 C 143.457031 185.621094 150.535156 176.378906 158.351562 167.699219 C 158.476562 167.558594 158.570312 167.398438 158.632812 167.222656 C 158.691406 167.046875 158.71875 166.863281 158.707031 166.679688 C 158.695312 166.492188 158.652344 166.3125 158.570312 166.144531 C 158.488281 165.976562 158.375 165.828125 158.238281 165.707031 C 158.097656 165.582031 157.9375 165.488281 157.761719 165.425781 C 157.582031 165.363281 157.402344 165.339844 157.214844 165.351562 C 157.027344 165.359375 156.847656 165.40625 156.679688 165.488281 C 156.511719 165.570312 156.363281 165.679688 156.238281 165.820312 C 148.324219 174.613281 141.152344 183.976562 134.726562 193.902344 C 134.625 194.0625 134.558594 194.234375 134.523438 194.417969 C 134.492188 194.601562 134.496094 194.785156 134.535156 194.96875 C 134.578125 195.148438 134.652344 195.316406 134.757812 195.472656 C 134.867188 195.625 134.996094 195.75 135.15625 195.851562 C 135.390625 196.003906 135.644531 196.078125 135.921875 196.074219 Z M 140.707031 251.453125 C 140.351562 251.453125 140.042969 251.335938 139.777344 251.105469 C 139.507812 250.871094 139.351562 250.578125 139.304688 250.226562 C 139.257812 249.878906 139.332031 249.554688 139.527344 249.257812 C 139.726562 248.964844 139.996094 248.773438 140.335938 248.679688 C 143.246094 247.890625 146.269531 246.917969 149.316406 245.789062 C 149.492188 245.726562 149.675781 245.699219 149.863281 245.707031 C 150.046875 245.714844 150.226562 245.757812 150.398438 245.835938 C 150.566406 245.914062 150.714844 246.019531 150.839844 246.15625 C 150.96875 246.292969 151.066406 246.449219 151.128906 246.625 C 151.195312 246.800781 151.222656 246.980469 151.21875 247.167969 C 151.210938 247.355469 151.167969 247.53125 151.089844 247.703125 C 151.011719 247.871094 150.90625 248.019531 150.769531 248.148438 C 150.632812 248.273438 150.476562 248.371094 150.300781 248.4375 C 147.171875 249.59375 144.070312 250.59375 141.078125 251.402344 C 140.957031 251.4375 140.832031 251.453125 140.707031 251.453125 Z M 257.265625 141.335938 C 257.558594 141.335938 257.828125 141.253906 258.070312 141.085938 C 258.3125 140.917969 258.488281 140.695312 258.589844 140.421875 C 259.753906 137.296875 260.753906 134.199219 261.5625 131.21875 C 261.613281 131.039062 261.625 130.855469 261.601562 130.667969 C 261.578125 130.484375 261.519531 130.308594 261.425781 130.148438 C 261.332031 129.984375 261.210938 129.847656 261.0625 129.730469 C 260.914062 129.617188 260.75 129.535156 260.570312 129.488281 C 260.386719 129.4375 260.203125 129.425781 260.019531 129.449219 C 259.832031 129.472656 259.65625 129.53125 259.496094 129.625 C 259.332031 129.71875 259.195312 129.835938 259.078125 129.984375 C 258.964844 130.132812 258.882812 130.296875 258.832031 130.480469 C 258.046875 133.378906 257.070312 136.390625 255.9375 139.4375 C 255.871094 139.613281 255.84375 139.792969 255.847656 139.980469 C 255.855469 140.167969 255.898438 140.347656 255.976562 140.515625 C 256.054688 140.6875 256.164062 140.835938 256.300781 140.960938 C 256.4375 141.089844 256.59375 141.1875 256.769531 141.25 C 256.929688 141.308594 257.09375 141.339844 257.265625 141.339844 Z M 112.90625 216.121094 C 113.082031 216.121094 113.257812 216.085938 113.421875 216.019531 C 113.589844 215.957031 113.738281 215.863281 113.867188 215.742188 C 114 215.617188 114.101562 215.476562 114.179688 215.316406 C 114.257812 215.15625 114.300781 214.984375 114.316406 214.808594 C 114.628906 211.394531 115.375 208.078125 116.554688 204.859375 C 116.625 204.679688 116.65625 204.492188 116.648438 204.300781 C 116.644531 204.109375 116.601562 203.925781 116.519531 203.75 C 116.441406 203.578125 116.328125 203.425781 116.183594 203.296875 C 116.042969 203.167969 115.878906 203.070312 115.695312 203.007812 C 115.515625 202.945312 115.328125 202.921875 115.132812 202.933594 C 114.941406 202.949219 114.757812 203 114.585938 203.089844 C 114.417969 203.175781 114.269531 203.296875 114.144531 203.441406 C 114.023438 203.589844 113.933594 203.757812 113.878906 203.941406 C 112.617188 207.394531 111.824219 210.953125 111.492188 214.613281 C 111.480469 214.800781 111.5 214.984375 111.5625 215.160156 C 111.621094 215.335938 111.710938 215.496094 111.835938 215.636719 C 111.957031 215.78125 112.101562 215.890625 112.269531 215.976562 C 112.4375 216.058594 112.617188 216.109375 112.804688 216.121094 Z M 214.449219 106.824219 C 214.101562 106.824219 213.796875 106.714844 213.535156 106.492188 C 213.269531 106.265625 213.109375 105.984375 213.050781 105.644531 C 212.996094 105.304688 213.054688 104.984375 213.234375 104.6875 C 213.410156 104.394531 213.664062 104.1875 213.988281 104.078125 C 217.453125 102.820312 221.019531 102.023438 224.6875 101.695312 C 224.878906 101.679688 225.0625 101.699219 225.246094 101.753906 C 225.425781 101.8125 225.589844 101.902344 225.734375 102.023438 C 225.878906 102.148438 225.996094 102.292969 226.082031 102.464844 C 226.167969 102.632812 226.214844 102.8125 226.230469 103.003906 C 226.242188 103.191406 226.21875 103.375 226.15625 103.554688 C 226.097656 103.734375 226.003906 103.894531 225.875 104.039062 C 225.75 104.179688 225.601562 104.292969 225.429688 104.375 C 225.257812 104.457031 225.074219 104.5 224.886719 104.511719 C 221.464844 104.824219 218.140625 105.570312 214.914062 106.742188 C 214.761719 106.800781 214.601562 106.832031 214.441406 106.835938 Z M 214.449219 106.824219 " fill-opacity="1" fill-rule="evenodd"/></svg>